<svg width="50" height="50" viewBox="0 0 50 50" fill="none" xmlns="http://www.w3.org/2000/svg">
<path d="M25 47.4167C22.7291 47.4167 20.4791 46.75 18.7083 45.4375L9.74998 38.75C7.37498 36.9792 5.52081 33.2708 5.52081 30.3333V14.8333C5.52081 11.625 7.87498 8.20833 10.8958 7.08333L21.2916 3.1875C23.3541 2.41667 26.6041 2.41667 28.6666 3.1875L39.0625 7.08333C42.0833 8.20833 44.4375 11.625 44.4375 14.8333V30.3125C44.4375 33.2708 42.5833 36.9583 40.2083 38.7292L31.25 45.4167C29.5208 46.75 27.2708 47.4167 25 47.4167ZM22.3958 6.125L12 10.0208C10.2291 10.6875 8.66665 12.9375 8.66665 14.8542V30.3333C8.66665 32.3125 10.0625 35.0833 11.625 36.25L20.5833 42.9375C22.9791 44.7292 27.0208 44.7292 29.4375 42.9375L38.3958 36.25C39.9791 35.0625 41.3541 32.3125 41.3541 30.3333V14.8333C41.3541 12.9375 39.7916 10.6875 38.0208 10L27.625 6.10417C26.2083 5.60417 23.7916 5.60417 22.3958 6.125Z" fill="#FBBC05"/>
<path d="M22.2083 29.6459C21.8125 29.6459 21.4167 29.5 21.1042 29.1875L17.75 25.8334C17.1458 25.2292 17.1458 24.2292 17.75 23.625C18.3542 23.0209 19.3542 23.0209 19.9583 23.625L22.2083 25.875L30.0625 18.0209C30.6667 17.4167 31.6667 17.4167 32.2708 18.0209C32.875 18.625 32.875 19.625 32.2708 20.2292L23.3125 29.1875C23 29.5 22.6042 29.6459 22.2083 29.6459Z" fill="#FBBC05"/>
</svg>
