<svg width="20" height="20" viewBox="0 0 30 30" fill="none" xmlns="http://www.w3.org/2000/svg">
<path fill-rule="evenodd" clip-rule="evenodd" d="M29.3995 15.3406C29.3995 14.277 29.3041 13.2543 29.1268 12.2725H14.9998V18.0747H23.0724C22.7246 19.9496 21.6678 21.5382 20.0792 22.6019V26.3655H24.9269C27.7632 23.7541 29.3995 19.9087 29.3995 15.3406Z" fill="#4285F4"/>
<path fill-rule="evenodd" clip-rule="evenodd" d="M14.9996 29.9993C19.0495 29.9993 22.4449 28.6561 24.9267 26.3652L20.079 22.6017C18.7359 23.5016 17.0177 24.0335 14.9996 24.0335C11.0928 24.0335 7.78603 21.3949 6.6065 17.8495H1.59521V21.7358C4.06336 26.638 9.13601 29.9993 14.9996 29.9993Z" fill="#34A853"/>
<path fill-rule="evenodd" clip-rule="evenodd" d="M6.60672 17.8499C6.30672 16.9499 6.13627 15.9885 6.13627 14.9999C6.13627 14.0113 6.30672 13.05 6.60672 12.15V8.26366H1.59543C0.579537 10.2886 0 12.5795 0 14.9999C0 17.4203 0.579537 19.7112 1.59543 21.7362L6.60672 17.8499Z" fill="#FBBC05"/>
<path fill-rule="evenodd" clip-rule="evenodd" d="M14.9996 5.96582C17.2018 5.96582 19.179 6.72262 20.7336 8.20897L25.0358 3.90676C22.4381 1.48634 19.0427 0 14.9996 0C9.13601 0 4.06336 3.36131 1.59521 8.26351L6.6065 12.1498C7.78603 8.60441 11.0928 5.96582 14.9996 5.96582Z" fill="#EA4335"/>
</svg>