<svg width="50" height="50" viewBox="0 0 50 50" fill="none" xmlns="http://www.w3.org/2000/svg">
<path d="M25 47.3958C14.0833 47.3958 5.20834 38.5208 5.20834 27.6042C5.20834 16.6875 14.0833 7.8125 25 7.8125C35.9167 7.8125 44.7917 16.6875 44.7917 27.6042C44.7917 38.5208 35.9167 47.3958 25 47.3958ZM25 10.9375C15.8125 10.9375 8.33334 18.4167 8.33334 27.6042C8.33334 36.7917 15.8125 44.2708 25 44.2708C34.1875 44.2708 41.6667 36.7917 41.6667 27.6042C41.6667 18.4167 34.1875 10.9375 25 10.9375Z" fill="#00AF66"/>
<path d="M25 28.6458C24.1458 28.6458 23.4375 27.9375 23.4375 27.0833V16.6666C23.4375 15.8125 24.1458 15.1041 25 15.1041C25.8542 15.1041 26.5625 15.8125 26.5625 16.6666V27.0833C26.5625 27.9375 25.8542 28.6458 25 28.6458Z" fill="#00AF66"/>
<path d="M31.25 5.72913H18.75C17.8958 5.72913 17.1875 5.02079 17.1875 4.16663C17.1875 3.31246 17.8958 2.60413 18.75 2.60413H31.25C32.1042 2.60413 32.8125 3.31246 32.8125 4.16663C32.8125 5.02079 32.1042 5.72913 31.25 5.72913Z" fill="#00AF66"/>
</svg>
