<svg width="50" height="50" viewBox="0 0 50 50" fill="none" xmlns="http://www.w3.org/2000/svg">
<path d="M24.9995 46.0001C24.3745 46.0001 23.7495 45.8542 23.2287 45.5626C19.3329 43.4376 12.4995 41.1876 8.20783 40.6251L7.60371 40.5418C4.87454 40.2085 2.62451 37.6459 2.62451 34.875V9.70835C2.62451 8.06251 3.27036 6.56258 4.45786 5.47925C5.64535 4.39591 7.18695 3.87506 8.81195 4.02089C13.3745 4.39589 20.2911 6.68758 24.2078 9.12508L24.7078 9.41678C24.8536 9.47928 25.1662 9.50011 25.2912 9.41678L25.6245 9.20837C27.0203 8.33337 28.7703 7.47918 30.6869 6.70834C31.1661 6.52084 31.7078 6.58338 32.1453 6.87505C32.5828 7.16671 32.8328 7.64587 32.8328 8.1667V13.75L34.562 12.6042C35.0829 12.25 35.7703 12.25 36.2911 12.6042L38.0203 13.75V5.7918C38.0203 5.0418 38.562 4.39586 39.2911 4.25003C39.8953 4.14586 40.4995 4.06256 41.0412 4.02089C41.0828 4.02089 41.2495 4.02089 41.2912 4.02089C42.812 3.89589 44.3745 4.41677 45.5411 5.5001C46.7286 6.58343 47.3745 8.08337 47.3745 9.7292V34.875C47.3745 37.6667 45.1245 40.2085 42.3745 40.5418L41.687 40.6251C37.3953 41.1876 30.5203 43.4584 26.7078 45.5626C26.2495 45.8542 25.6245 46.0001 24.9995 46.0001ZM8.29112 7.10418C7.62445 7.10418 7.02036 7.33336 6.54119 7.77086C6.02035 8.25003 5.72866 8.93751 5.72866 9.70835V34.875C5.72866 36.1042 6.79119 37.2917 7.97869 37.4584L8.60367 37.5418C13.2912 38.1668 20.4787 40.5209 24.6454 42.8125C24.8329 42.8959 25.1036 42.9168 25.2078 42.8751C29.3953 40.5626 36.6037 38.1876 41.312 37.5626L42.0203 37.4792C43.2078 37.3334 44.2703 36.1251 44.2703 34.8959V9.75006C44.2703 8.97922 43.9786 8.31257 43.4578 7.81257C42.937 7.3334 42.2079 7.10422 41.4579 7.14589C41.3954 7.14589 41.2078 7.14589 41.1662 7.14589V16.6667C41.1662 17.2501 40.8536 17.7708 40.3328 18.0417C39.812 18.3125 39.2079 18.2917 38.7287 17.9584L35.437 15.7709L32.1453 17.9584C31.6661 18.2709 31.0619 18.3125 30.5411 18.0417C30.0411 17.7708 29.7078 17.2501 29.7078 16.6667V10.5626C28.812 11.0001 27.9994 11.4376 27.2911 11.8542L26.9578 12.0625C25.812 12.7709 24.187 12.7709 23.0829 12.0834L22.5829 11.771C19.062 9.56262 12.6453 7.43752 8.56196 7.10418C8.45779 7.10418 8.37445 7.10418 8.29112 7.10418Z" fill="#E93737"/>
<path d="M25 44.25C24.1458 44.25 23.4375 43.5417 23.4375 42.6875V11.4375C23.4375 10.5833 24.1458 9.875 25 9.875C25.8542 9.875 26.5625 10.5833 26.5625 11.4375V42.6875C26.5625 43.5625 25.8542 44.25 25 44.25Z" fill="#E93737"/>
<path d="M39.5833 18.2291C39.2708 18.2291 38.9792 18.1458 38.7084 17.9583L35.4167 15.7708L32.125 17.9583C31.6458 18.2708 31.0417 18.3124 30.5209 18.0416C30.0209 17.7708 29.6875 17.25 29.6875 16.6666V8.16661C29.6875 7.52077 30.0833 6.95825 30.6666 6.70825C33.5416 5.56242 36.6875 4.6666 39.3333 4.24993C39.7917 4.1666 40.25 4.31252 40.6041 4.60419C40.9583 4.89586 41.1458 5.33337 41.1458 5.7917V16.6666C41.1458 17.25 40.8333 17.7708 40.3124 18.0416C40.0833 18.1666 39.8333 18.2291 39.5833 18.2291ZM35.4167 12.3333C35.7083 12.3333 36.0208 12.4166 36.2916 12.6041L38.0208 13.7499V7.68748C36.3542 8.06248 34.5417 8.60415 32.8125 9.24998V13.7499L34.5417 12.6041C34.8125 12.4166 35.125 12.3333 35.4167 12.3333Z" fill="#E93737"/>
</svg>
