<svg width="25" height="25" viewBox="0 0 25 25" fill="none" xmlns="http://www.w3.org/2000/svg">
<path d="M15 22.75H9C3.57 22.75 1.25 20.43 1.25 15V9C1.25 3.57 3.57 1.25 9 1.25H15C20.43 1.25 22.75 3.57 22.75 9V15C22.75 20.43 20.43 22.75 15 22.75ZM9 2.75C4.39 2.75 2.75 4.39 2.75 9V15C2.75 19.61 4.39 21.25 9 21.25H15C19.61 21.25 21.25 19.61 21.25 15V9C21.25 4.39 19.61 2.75 15 2.75H9Z" fill="#00AF66"/>
<path d="M12.12 16.24C9.85 16.24 8 14.39 8 12.12C8 9.85 9.85 8 12.12 8C14.39 8 16.24 9.85 16.24 12.12C16.24 14.39 14.4 16.24 12.12 16.24ZM12.12 9.49001C10.67 9.49001 9.5 10.67 9.5 12.11C9.5 13.55 10.68 14.73 12.12 14.73C13.56 14.73 14.74 13.55 14.74 12.11C14.74 10.67 13.57 9.49001 12.12 9.49001Z" fill="#00AF66"/>
<path d="M17 8C16.45 8 16 7.55 16 7C16 6.45 16.44 6 17 6H17.01C17.56 6 18.01 6.45 18.01 7C18.01 7.55 17.55 8 17 8Z" fill="#00AF66"/>
</svg>
