<svg width="65" height="186" viewBox="0 0 65 186" fill="none" xmlns="http://www.w3.org/2000/svg">
<path fill-rule="evenodd" clip-rule="evenodd" d="M0.718242 136.462L-2.10268e-06 137.896L0.718242 139.33L23.2029 184.227C23.9962 185.811 25.9256 186.453 27.5123 185.661C29.099 184.869 29.7422 182.942 28.9488 181.358L7.18244 137.896L28.9488 94.4342L29.6671 93L28.9488 91.5658L7.18244 48.1038L28.9488 4.64172C29.7422 3.0576 29.099 1.13133 27.5123 0.339263C25.9256 -0.452806 23.9962 0.189284 23.2028 1.77342L0.718238 46.6696L-6.02763e-06 48.1038L0.718238 49.5379L22.4846 93L0.718242 136.462ZM36.0512 136.462L35.333 137.896L36.0512 139.33L58.5358 184.227C59.3292 185.811 61.2586 186.453 62.8453 185.661C64.432 184.869 65.0751 182.942 64.2818 181.358L42.5154 137.896L64.2818 94.4342L65 93L64.2818 91.5658L42.5154 48.1038L64.2818 4.64172C65.0751 3.0576 64.432 1.13133 62.8453 0.339261C61.2586 -0.452807 59.3292 0.189283 58.5358 1.77342L36.0512 46.6696L35.3329 48.1038L36.0512 49.5379L57.8176 93L36.0512 136.462Z" fill="#D3DD18"/>
</svg>
