<svg width="116" height="117" viewBox="0 0 116 117" fill="none" xmlns="http://www.w3.org/2000/svg">
<path fill-rule="evenodd" clip-rule="evenodd" d="M-56.3245 0L-54.4735 1.03629L-27.9123 15.9069L-1.35098 1.03629L0.500008 0L2.35098 1.03629L28.9123 15.9069L55.4735 1.03629L57.3245 0L59.1755 1.03629L85.7368 15.9069L112.298 1.03629L116 7.64527L87.5878 23.5522L85.7368 24.5885L83.8858 23.5522L57.3245 8.68157L30.7632 23.5522L28.9123 24.5885L27.0613 23.5522L0.500008 8.68157L-26.0613 23.5522L-27.9123 24.5885L-29.7632 23.5522L-56.3245 8.68156L-82.8858 23.5522L-84.7368 24.5885L-86.5877 23.5522L-115 7.64527L-111.298 1.03629L-84.7368 15.9069L-58.1755 1.03629L-56.3245 0ZM-56.3245 46.2058L-54.4735 47.2421L-27.9123 62.1127L-1.35098 47.2421L0.500008 46.2058L2.35098 47.2421L28.9123 62.1127L55.4735 47.2421L57.3245 46.2058L59.1755 47.2421L85.7368 62.1127L112.298 47.2421L116 53.851L87.5878 69.7579L85.7368 70.7942L83.8858 69.7579L57.3245 54.8873L30.7632 69.7579L28.9123 70.7942L27.0613 69.7579L0.500008 54.8873L-26.0613 69.7579L-27.9123 70.7942L-29.7632 69.7579L-56.3245 54.8873L-82.8858 69.7579L-84.7368 70.7942L-86.5877 69.7579L-115 53.851L-111.298 47.2421L-84.7368 62.1127L-58.1755 47.2421L-56.3245 46.2058ZM-54.4735 93.4478L-56.3245 92.4115L-58.1755 93.4478L-84.7368 108.318L-111.298 93.4478L-115 100.057L-86.5877 115.964L-84.7368 117L-82.8858 115.964L-56.3245 101.093L-29.7632 115.964L-27.9123 117L-26.0613 115.964L0.500008 101.093L27.0613 115.964L28.9123 117L30.7632 115.964L57.3245 101.093L83.8858 115.964L85.7368 117L87.5878 115.964L116 100.057L112.298 93.4478L85.7368 108.318L59.1755 93.4478L57.3245 92.4115L55.4735 93.4478L28.9123 108.318L2.35098 93.4478L0.500008 92.4115L-1.35098 93.4478L-27.9123 108.318L-54.4735 93.4478Z" fill="#00AF66"/>
</svg>
