<svg width="116" height="117" viewBox="0 0 116 117" fill="none" xmlns="http://www.w3.org/2000/svg">
<path fill-rule="evenodd" clip-rule="evenodd" d="M58.9295 0L60.7885 1.03629L87.4647 15.9069L114.141 1.03629L116 0L117.859 1.03629L144.535 15.9069L171.212 1.03629L173.07 0L174.929 1.03629L201.606 15.9069L228.282 1.03629L232 7.64527L203.465 23.5522L201.606 24.5885L199.747 23.5522L173.07 8.68157L146.394 23.5522L144.535 24.5885L142.676 23.5522L116 8.68157L89.3237 23.5522L87.4647 24.5885L85.6058 23.5522L58.9295 8.68156L32.2532 23.5522L30.3942 24.5885L28.5352 23.5522L0 7.64527L3.71798 1.03629L30.3942 15.9069L57.0705 1.03629L58.9295 0ZM58.9295 46.2058L60.7885 47.2421L87.4647 62.1127L114.141 47.2421L116 46.2058L117.859 47.2421L144.535 62.1127L171.212 47.2421L173.07 46.2058L174.929 47.2421L201.606 62.1127L228.282 47.2421L232 53.851L203.465 69.7579L201.606 70.7942L199.747 69.7579L173.07 54.8873L146.394 69.7579L144.535 70.7942L142.676 69.7579L116 54.8873L89.3237 69.7579L87.4647 70.7942L85.6058 69.7579L58.9295 54.8873L32.2532 69.7579L30.3942 70.7942L28.5352 69.7579L0 53.851L3.71798 47.2421L30.3942 62.1127L57.0705 47.2421L58.9295 46.2058ZM60.7885 93.4478L58.9295 92.4115L57.0705 93.4478L30.3942 108.318L3.71798 93.4478L0 100.057L28.5352 115.964L30.3942 117L32.2532 115.964L58.9295 101.093L85.6058 115.964L87.4647 117L89.3237 115.964L116 101.093L142.676 115.964L144.535 117L146.394 115.964L173.07 101.093L199.747 115.964L201.606 117L203.465 115.964L232 100.057L228.282 93.4478L201.606 108.318L174.929 93.4478L173.07 92.4115L171.212 93.4478L144.535 108.318L117.859 93.4478L116 92.4115L114.141 93.4478L87.4647 108.318L60.7885 93.4478Z" fill="#FBBC05"/>
</svg>
