<svg width="60" height="170" viewBox="0 0 60 170" fill="none" xmlns="http://www.w3.org/2000/svg">
<path d="M-90 2.50012C-90 3.88083 -91.1193 5.00012 -92.5 5.00012C-93.8807 5.00012 -95 3.88083 -95 2.50012C-95 1.11941 -93.8807 0.00012207 -92.5 0.00012207C-91.1193 0.00012207 -90 1.11941 -90 2.50012Z" fill="#00AF66" fill-opacity="0.7"/>
<path d="M-75 2.50012C-75 3.88083 -76.1193 5.00012 -77.5 5.00012C-78.8807 5.00012 -80 3.88083 -80 2.50012C-80 1.11941 -78.8807 0.00012207 -77.5 0.00012207C-76.1193 0.00012207 -75 1.11941 -75 2.50012Z" fill="#00AF66" fill-opacity="0.7"/>
<path d="M-60 2.50012C-60 3.88083 -61.1193 5.00012 -62.5 5.00012C-63.8807 5.00012 -65 3.88083 -65 2.50012C-65 1.11941 -63.8807 0.00012207 -62.5 0.00012207C-61.1193 0.00012207 -60 1.11941 -60 2.50012Z" fill="#00AF66" fill-opacity="0.7"/>
<path d="M-45 2.50012C-45 3.88083 -46.1193 5.00012 -47.5 5.00012C-48.8807 5.00012 -50 3.88083 -50 2.50012C-50 1.11941 -48.8807 0.00012207 -47.5 0.00012207C-46.1193 0.00012207 -45 1.11941 -45 2.50012Z" fill="#00AF66" fill-opacity="0.7"/>
<path d="M-30 2.50012C-30 3.88083 -31.1193 5.00012 -32.5 5.00012C-33.8807 5.00012 -35 3.88083 -35 2.50012C-35 1.11941 -33.8807 0.00012207 -32.5 0.00012207C-31.1193 0.00012207 -30 1.11941 -30 2.50012Z" fill="#00AF66" fill-opacity="0.7"/>
<path d="M-15 2.50012C-15 3.88083 -16.1193 5.00012 -17.5 5.00012C-18.8807 5.00012 -20 3.88083 -20 2.50012C-20 1.11941 -18.8807 0.00012207 -17.5 0.00012207C-16.1193 0.00012207 -15 1.11941 -15 2.50012Z" fill="#00AF66" fill-opacity="0.7"/>
<path d="M0 2.50012C0 3.88083 -1.11929 5.00012 -2.5 5.00012C-3.88071 5.00012 -5 3.88083 -5 2.50012C-5 1.11941 -3.88071 0.00012207 -2.5 0.00012207C-1.11929 0.00012207 0 1.11941 0 2.50012Z" fill="#00AF66" fill-opacity="0.7"/>
<path d="M15 2.50012C15 3.88083 13.8807 5.00012 12.5 5.00012C11.1193 5.00012 10 3.88083 10 2.50012C10 1.11941 11.1193 0.00012207 12.5 0.00012207C13.8807 0.00012207 15 1.11941 15 2.50012Z" fill="#00AF66" fill-opacity="0.7"/>
<path d="M30 2.50012C30 3.88083 28.8807 5.00012 27.5 5.00012C26.1193 5.00012 25 3.88083 25 2.50012C25 1.11941 26.1193 0.00012207 27.5 0.00012207C28.8807 0.00012207 30 1.11941 30 2.50012Z" fill="#00AF66" fill-opacity="0.7"/>
<path d="M45 2.50012C45 3.88083 43.8807 5.00012 42.5 5.00012C41.1193 5.00012 40 3.88083 40 2.50012C40 1.11941 41.1193 0.00012207 42.5 0.00012207C43.8807 0.00012207 45 1.11941 45 2.50012Z" fill="#00AF66" fill-opacity="0.7"/>
<path d="M60 2.50012C60 3.88083 58.8807 5.00012 57.5 5.00012C56.1193 5.00012 55 3.88083 55 2.50012C55 1.11941 56.1193 0.00012207 57.5 0.00012207C58.8807 0.00012207 60 1.11941 60 2.50012Z" fill="#00AF66" fill-opacity="0.7"/>
<path d="M-90 17.5001C-90 18.8808 -91.1193 20.0001 -92.5 20.0001C-93.8807 20.0001 -95 18.8808 -95 17.5001C-95 16.1194 -93.8807 15.0001 -92.5 15.0001C-91.1193 15.0001 -90 16.1194 -90 17.5001Z" fill="#00AF66" fill-opacity="0.7"/>
<path d="M-75 17.5001C-75 18.8808 -76.1193 20.0001 -77.5 20.0001C-78.8807 20.0001 -80 18.8808 -80 17.5001C-80 16.1194 -78.8807 15.0001 -77.5 15.0001C-76.1193 15.0001 -75 16.1194 -75 17.5001Z" fill="#00AF66" fill-opacity="0.7"/>
<path d="M-60 17.5001C-60 18.8808 -61.1193 20.0001 -62.5 20.0001C-63.8807 20.0001 -65 18.8808 -65 17.5001C-65 16.1194 -63.8807 15.0001 -62.5 15.0001C-61.1193 15.0001 -60 16.1194 -60 17.5001Z" fill="#00AF66" fill-opacity="0.7"/>
<path d="M-45 17.5001C-45 18.8808 -46.1193 20.0001 -47.5 20.0001C-48.8807 20.0001 -50 18.8808 -50 17.5001C-50 16.1194 -48.8807 15.0001 -47.5 15.0001C-46.1193 15.0001 -45 16.1194 -45 17.5001Z" fill="#00AF66" fill-opacity="0.7"/>
<path d="M-30 17.5001C-30 18.8808 -31.1193 20.0001 -32.5 20.0001C-33.8807 20.0001 -35 18.8808 -35 17.5001C-35 16.1194 -33.8807 15.0001 -32.5 15.0001C-31.1193 15.0001 -30 16.1194 -30 17.5001Z" fill="#00AF66" fill-opacity="0.7"/>
<path d="M-15 17.5001C-15 18.8808 -16.1193 20.0001 -17.5 20.0001C-18.8807 20.0001 -20 18.8808 -20 17.5001C-20 16.1194 -18.8807 15.0001 -17.5 15.0001C-16.1193 15.0001 -15 16.1194 -15 17.5001Z" fill="#00AF66" fill-opacity="0.7"/>
<path d="M0 17.5001C0 18.8808 -1.11929 20.0001 -2.5 20.0001C-3.88071 20.0001 -5 18.8808 -5 17.5001C-5 16.1194 -3.88071 15.0001 -2.5 15.0001C-1.11929 15.0001 0 16.1194 0 17.5001Z" fill="#00AF66" fill-opacity="0.7"/>
<path d="M15 17.5001C15 18.8808 13.8807 20.0001 12.5 20.0001C11.1193 20.0001 10 18.8808 10 17.5001C10 16.1194 11.1193 15.0001 12.5 15.0001C13.8807 15.0001 15 16.1194 15 17.5001Z" fill="#00AF66" fill-opacity="0.7"/>
<path d="M30 17.5001C30 18.8808 28.8807 20.0001 27.5 20.0001C26.1193 20.0001 25 18.8808 25 17.5001C25 16.1194 26.1193 15.0001 27.5 15.0001C28.8807 15.0001 30 16.1194 30 17.5001Z" fill="#00AF66" fill-opacity="0.7"/>
<path d="M45 17.5001C45 18.8808 43.8807 20.0001 42.5 20.0001C41.1193 20.0001 40 18.8808 40 17.5001C40 16.1194 41.1193 15.0001 42.5 15.0001C43.8807 15.0001 45 16.1194 45 17.5001Z" fill="#00AF66" fill-opacity="0.7"/>
<path d="M60 17.5001C60 18.8808 58.8807 20.0001 57.5 20.0001C56.1193 20.0001 55 18.8808 55 17.5001C55 16.1194 56.1193 15.0001 57.5 15.0001C58.8807 15.0001 60 16.1194 60 17.5001Z" fill="#00AF66" fill-opacity="0.7"/>
<path d="M-90 32.5001C-90 33.8808 -91.1193 35.0001 -92.5 35.0001C-93.8807 35.0001 -95 33.8808 -95 32.5001C-95 31.1194 -93.8807 30.0001 -92.5 30.0001C-91.1193 30.0001 -90 31.1194 -90 32.5001Z" fill="#00AF66" fill-opacity="0.7"/>
<path d="M-75 32.5001C-75 33.8808 -76.1193 35.0001 -77.5 35.0001C-78.8807 35.0001 -80 33.8808 -80 32.5001C-80 31.1194 -78.8807 30.0001 -77.5 30.0001C-76.1193 30.0001 -75 31.1194 -75 32.5001Z" fill="#00AF66" fill-opacity="0.7"/>
<path d="M-60 32.5001C-60 33.8808 -61.1193 35.0001 -62.5 35.0001C-63.8807 35.0001 -65 33.8808 -65 32.5001C-65 31.1194 -63.8807 30.0001 -62.5 30.0001C-61.1193 30.0001 -60 31.1194 -60 32.5001Z" fill="#00AF66" fill-opacity="0.7"/>
<path d="M-45 32.5001C-45 33.8808 -46.1193 35.0001 -47.5 35.0001C-48.8807 35.0001 -50 33.8808 -50 32.5001C-50 31.1194 -48.8807 30.0001 -47.5 30.0001C-46.1193 30.0001 -45 31.1194 -45 32.5001Z" fill="#00AF66" fill-opacity="0.7"/>
<path d="M-30 32.5001C-30 33.8808 -31.1193 35.0001 -32.5 35.0001C-33.8807 35.0001 -35 33.8808 -35 32.5001C-35 31.1194 -33.8807 30.0001 -32.5 30.0001C-31.1193 30.0001 -30 31.1194 -30 32.5001Z" fill="#00AF66" fill-opacity="0.7"/>
<path d="M-15 32.5001C-15 33.8808 -16.1193 35.0001 -17.5 35.0001C-18.8807 35.0001 -20 33.8808 -20 32.5001C-20 31.1194 -18.8807 30.0001 -17.5 30.0001C-16.1193 30.0001 -15 31.1194 -15 32.5001Z" fill="#00AF66" fill-opacity="0.7"/>
<path d="M0 32.5001C0 33.8808 -1.11929 35.0001 -2.5 35.0001C-3.88071 35.0001 -5 33.8808 -5 32.5001C-5 31.1194 -3.88071 30.0001 -2.5 30.0001C-1.11929 30.0001 0 31.1194 0 32.5001Z" fill="#00AF66" fill-opacity="0.7"/>
<path d="M15 32.5001C15 33.8808 13.8807 35.0001 12.5 35.0001C11.1193 35.0001 10 33.8808 10 32.5001C10 31.1194 11.1193 30.0001 12.5 30.0001C13.8807 30.0001 15 31.1194 15 32.5001Z" fill="#00AF66" fill-opacity="0.7"/>
<path d="M30 32.5001C30 33.8808 28.8807 35.0001 27.5 35.0001C26.1193 35.0001 25 33.8808 25 32.5001C25 31.1194 26.1193 30.0001 27.5 30.0001C28.8807 30.0001 30 31.1194 30 32.5001Z" fill="#00AF66" fill-opacity="0.7"/>
<path d="M45 32.5001C45 33.8808 43.8807 35.0001 42.5 35.0001C41.1193 35.0001 40 33.8808 40 32.5001C40 31.1194 41.1193 30.0001 42.5 30.0001C43.8807 30.0001 45 31.1194 45 32.5001Z" fill="#00AF66" fill-opacity="0.7"/>
<path d="M60 32.5001C60 33.8808 58.8807 35.0001 57.5 35.0001C56.1193 35.0001 55 33.8808 55 32.5001C55 31.1194 56.1193 30.0001 57.5 30.0001C58.8807 30.0001 60 31.1194 60 32.5001Z" fill="#00AF66" fill-opacity="0.7"/>
<path d="M-90 47.5001C-90 48.8808 -91.1193 50.0001 -92.5 50.0001C-93.8807 50.0001 -95 48.8808 -95 47.5001C-95 46.1194 -93.8807 45.0001 -92.5 45.0001C-91.1193 45.0001 -90 46.1194 -90 47.5001Z" fill="#00AF66" fill-opacity="0.7"/>
<path d="M-75 47.5001C-75 48.8808 -76.1193 50.0001 -77.5 50.0001C-78.8807 50.0001 -80 48.8808 -80 47.5001C-80 46.1194 -78.8807 45.0001 -77.5 45.0001C-76.1193 45.0001 -75 46.1194 -75 47.5001Z" fill="#00AF66" fill-opacity="0.7"/>
<path d="M-60 47.5001C-60 48.8808 -61.1193 50.0001 -62.5 50.0001C-63.8807 50.0001 -65 48.8808 -65 47.5001C-65 46.1194 -63.8807 45.0001 -62.5 45.0001C-61.1193 45.0001 -60 46.1194 -60 47.5001Z" fill="#00AF66" fill-opacity="0.7"/>
<path d="M-45 47.5001C-45 48.8808 -46.1193 50.0001 -47.5 50.0001C-48.8807 50.0001 -50 48.8808 -50 47.5001C-50 46.1194 -48.8807 45.0001 -47.5 45.0001C-46.1193 45.0001 -45 46.1194 -45 47.5001Z" fill="#00AF66" fill-opacity="0.7"/>
<path d="M-30 47.5001C-30 48.8808 -31.1193 50.0001 -32.5 50.0001C-33.8807 50.0001 -35 48.8808 -35 47.5001C-35 46.1194 -33.8807 45.0001 -32.5 45.0001C-31.1193 45.0001 -30 46.1194 -30 47.5001Z" fill="#00AF66" fill-opacity="0.7"/>
<path d="M-15 47.5001C-15 48.8808 -16.1193 50.0001 -17.5 50.0001C-18.8807 50.0001 -20 48.8808 -20 47.5001C-20 46.1194 -18.8807 45.0001 -17.5 45.0001C-16.1193 45.0001 -15 46.1194 -15 47.5001Z" fill="#00AF66" fill-opacity="0.7"/>
<path d="M0 47.5001C0 48.8808 -1.11929 50.0001 -2.5 50.0001C-3.88071 50.0001 -5 48.8808 -5 47.5001C-5 46.1194 -3.88071 45.0001 -2.5 45.0001C-1.11929 45.0001 0 46.1194 0 47.5001Z" fill="#00AF66" fill-opacity="0.7"/>
<path d="M15 47.5001C15 48.8808 13.8807 50.0001 12.5 50.0001C11.1193 50.0001 10 48.8808 10 47.5001C10 46.1194 11.1193 45.0001 12.5 45.0001C13.8807 45.0001 15 46.1194 15 47.5001Z" fill="#00AF66" fill-opacity="0.7"/>
<path d="M30 47.5001C30 48.8808 28.8807 50.0001 27.5 50.0001C26.1193 50.0001 25 48.8808 25 47.5001C25 46.1194 26.1193 45.0001 27.5 45.0001C28.8807 45.0001 30 46.1194 30 47.5001Z" fill="#00AF66" fill-opacity="0.7"/>
<path d="M45 47.5001C45 48.8808 43.8807 50.0001 42.5 50.0001C41.1193 50.0001 40 48.8808 40 47.5001C40 46.1194 41.1193 45.0001 42.5 45.0001C43.8807 45.0001 45 46.1194 45 47.5001Z" fill="#00AF66" fill-opacity="0.7"/>
<path d="M60 47.5001C60 48.8808 58.8807 50.0001 57.5 50.0001C56.1193 50.0001 55 48.8808 55 47.5001C55 46.1194 56.1193 45.0001 57.5 45.0001C58.8807 45.0001 60 46.1194 60 47.5001Z" fill="#00AF66" fill-opacity="0.7"/>
<path d="M-90 62.5001C-90 63.8808 -91.1193 65.0001 -92.5 65.0001C-93.8807 65.0001 -95 63.8808 -95 62.5001C-95 61.1194 -93.8807 60.0001 -92.5 60.0001C-91.1193 60.0001 -90 61.1194 -90 62.5001Z" fill="#00AF66" fill-opacity="0.7"/>
<path d="M-75 62.5001C-75 63.8808 -76.1193 65.0001 -77.5 65.0001C-78.8807 65.0001 -80 63.8808 -80 62.5001C-80 61.1194 -78.8807 60.0001 -77.5 60.0001C-76.1193 60.0001 -75 61.1194 -75 62.5001Z" fill="#00AF66" fill-opacity="0.7"/>
<path d="M-60 62.5001C-60 63.8808 -61.1193 65.0001 -62.5 65.0001C-63.8807 65.0001 -65 63.8808 -65 62.5001C-65 61.1194 -63.8807 60.0001 -62.5 60.0001C-61.1193 60.0001 -60 61.1194 -60 62.5001Z" fill="#00AF66" fill-opacity="0.7"/>
<path d="M-45 62.5001C-45 63.8808 -46.1193 65.0001 -47.5 65.0001C-48.8807 65.0001 -50 63.8808 -50 62.5001C-50 61.1194 -48.8807 60.0001 -47.5 60.0001C-46.1193 60.0001 -45 61.1194 -45 62.5001Z" fill="#00AF66" fill-opacity="0.7"/>
<path d="M-30 62.5001C-30 63.8808 -31.1193 65.0001 -32.5 65.0001C-33.8807 65.0001 -35 63.8808 -35 62.5001C-35 61.1194 -33.8807 60.0001 -32.5 60.0001C-31.1193 60.0001 -30 61.1194 -30 62.5001Z" fill="#00AF66" fill-opacity="0.7"/>
<path d="M-15 62.5001C-15 63.8808 -16.1193 65.0001 -17.5 65.0001C-18.8807 65.0001 -20 63.8808 -20 62.5001C-20 61.1194 -18.8807 60.0001 -17.5 60.0001C-16.1193 60.0001 -15 61.1194 -15 62.5001Z" fill="#00AF66" fill-opacity="0.7"/>
<path d="M0 62.5001C0 63.8808 -1.11929 65.0001 -2.5 65.0001C-3.88071 65.0001 -5 63.8808 -5 62.5001C-5 61.1194 -3.88071 60.0001 -2.5 60.0001C-1.11929 60.0001 0 61.1194 0 62.5001Z" fill="#00AF66" fill-opacity="0.7"/>
<path d="M15 62.5001C15 63.8808 13.8807 65.0001 12.5 65.0001C11.1193 65.0001 10 63.8808 10 62.5001C10 61.1194 11.1193 60.0001 12.5 60.0001C13.8807 60.0001 15 61.1194 15 62.5001Z" fill="#00AF66" fill-opacity="0.7"/>
<path d="M30 62.5001C30 63.8808 28.8807 65.0001 27.5 65.0001C26.1193 65.0001 25 63.8808 25 62.5001C25 61.1194 26.1193 60.0001 27.5 60.0001C28.8807 60.0001 30 61.1194 30 62.5001Z" fill="#00AF66" fill-opacity="0.7"/>
<path d="M45 62.5001C45 63.8808 43.8807 65.0001 42.5 65.0001C41.1193 65.0001 40 63.8808 40 62.5001C40 61.1194 41.1193 60.0001 42.5 60.0001C43.8807 60.0001 45 61.1194 45 62.5001Z" fill="#00AF66" fill-opacity="0.7"/>
<path d="M60 62.5001C60 63.8808 58.8807 65.0001 57.5 65.0001C56.1193 65.0001 55 63.8808 55 62.5001C55 61.1194 56.1193 60.0001 57.5 60.0001C58.8807 60.0001 60 61.1194 60 62.5001Z" fill="#00AF66" fill-opacity="0.7"/>
<path d="M-90 77.5001C-90 78.8808 -91.1193 80.0001 -92.5 80.0001C-93.8807 80.0001 -95 78.8808 -95 77.5001C-95 76.1194 -93.8807 75.0001 -92.5 75.0001C-91.1193 75.0001 -90 76.1194 -90 77.5001Z" fill="#00AF66" fill-opacity="0.7"/>
<path d="M-75 77.5001C-75 78.8808 -76.1193 80.0001 -77.5 80.0001C-78.8807 80.0001 -80 78.8808 -80 77.5001C-80 76.1194 -78.8807 75.0001 -77.5 75.0001C-76.1193 75.0001 -75 76.1194 -75 77.5001Z" fill="#00AF66" fill-opacity="0.7"/>
<path d="M-60 77.5001C-60 78.8808 -61.1193 80.0001 -62.5 80.0001C-63.8807 80.0001 -65 78.8808 -65 77.5001C-65 76.1194 -63.8807 75.0001 -62.5 75.0001C-61.1193 75.0001 -60 76.1194 -60 77.5001Z" fill="#00AF66" fill-opacity="0.7"/>
<path d="M-45 77.5001C-45 78.8808 -46.1193 80.0001 -47.5 80.0001C-48.8807 80.0001 -50 78.8808 -50 77.5001C-50 76.1194 -48.8807 75.0001 -47.5 75.0001C-46.1193 75.0001 -45 76.1194 -45 77.5001Z" fill="#00AF66" fill-opacity="0.7"/>
<path d="M-30 77.5001C-30 78.8808 -31.1193 80.0001 -32.5 80.0001C-33.8807 80.0001 -35 78.8808 -35 77.5001C-35 76.1194 -33.8807 75.0001 -32.5 75.0001C-31.1193 75.0001 -30 76.1194 -30 77.5001Z" fill="#00AF66" fill-opacity="0.7"/>
<path d="M-15 77.5001C-15 78.8808 -16.1193 80.0001 -17.5 80.0001C-18.8807 80.0001 -20 78.8808 -20 77.5001C-20 76.1194 -18.8807 75.0001 -17.5 75.0001C-16.1193 75.0001 -15 76.1194 -15 77.5001Z" fill="#00AF66" fill-opacity="0.7"/>
<path d="M0 77.5001C0 78.8808 -1.11929 80.0001 -2.5 80.0001C-3.88071 80.0001 -5 78.8808 -5 77.5001C-5 76.1194 -3.88071 75.0001 -2.5 75.0001C-1.11929 75.0001 0 76.1194 0 77.5001Z" fill="#00AF66" fill-opacity="0.7"/>
<path d="M15 77.5001C15 78.8808 13.8807 80.0001 12.5 80.0001C11.1193 80.0001 10 78.8808 10 77.5001C10 76.1194 11.1193 75.0001 12.5 75.0001C13.8807 75.0001 15 76.1194 15 77.5001Z" fill="#00AF66" fill-opacity="0.7"/>
<path d="M30 77.5001C30 78.8808 28.8807 80.0001 27.5 80.0001C26.1193 80.0001 25 78.8808 25 77.5001C25 76.1194 26.1193 75.0001 27.5 75.0001C28.8807 75.0001 30 76.1194 30 77.5001Z" fill="#00AF66" fill-opacity="0.7"/>
<path d="M45 77.5001C45 78.8808 43.8807 80.0001 42.5 80.0001C41.1193 80.0001 40 78.8808 40 77.5001C40 76.1194 41.1193 75.0001 42.5 75.0001C43.8807 75.0001 45 76.1194 45 77.5001Z" fill="#00AF66" fill-opacity="0.7"/>
<path d="M60 77.5001C60 78.8808 58.8807 80.0001 57.5 80.0001C56.1193 80.0001 55 78.8808 55 77.5001C55 76.1194 56.1193 75.0001 57.5 75.0001C58.8807 75.0001 60 76.1194 60 77.5001Z" fill="#00AF66" fill-opacity="0.7"/>
<path d="M-90 92.5001C-90 93.8808 -91.1193 95.0001 -92.5 95.0001C-93.8807 95.0001 -95 93.8808 -95 92.5001C-95 91.1194 -93.8807 90.0001 -92.5 90.0001C-91.1193 90.0001 -90 91.1194 -90 92.5001Z" fill="#00AF66" fill-opacity="0.7"/>
<path d="M-75 92.5001C-75 93.8808 -76.1193 95.0001 -77.5 95.0001C-78.8807 95.0001 -80 93.8808 -80 92.5001C-80 91.1194 -78.8807 90.0001 -77.5 90.0001C-76.1193 90.0001 -75 91.1194 -75 92.5001Z" fill="#00AF66" fill-opacity="0.7"/>
<path d="M-60 92.5001C-60 93.8808 -61.1193 95.0001 -62.5 95.0001C-63.8807 95.0001 -65 93.8808 -65 92.5001C-65 91.1194 -63.8807 90.0001 -62.5 90.0001C-61.1193 90.0001 -60 91.1194 -60 92.5001Z" fill="#00AF66" fill-opacity="0.7"/>
<path d="M-45 92.5001C-45 93.8808 -46.1193 95.0001 -47.5 95.0001C-48.8807 95.0001 -50 93.8808 -50 92.5001C-50 91.1194 -48.8807 90.0001 -47.5 90.0001C-46.1193 90.0001 -45 91.1194 -45 92.5001Z" fill="#00AF66" fill-opacity="0.7"/>
<path d="M-30 92.5001C-30 93.8808 -31.1193 95.0001 -32.5 95.0001C-33.8807 95.0001 -35 93.8808 -35 92.5001C-35 91.1194 -33.8807 90.0001 -32.5 90.0001C-31.1193 90.0001 -30 91.1194 -30 92.5001Z" fill="#00AF66" fill-opacity="0.7"/>
<path d="M-15 92.5001C-15 93.8808 -16.1193 95.0001 -17.5 95.0001C-18.8807 95.0001 -20 93.8808 -20 92.5001C-20 91.1194 -18.8807 90.0001 -17.5 90.0001C-16.1193 90.0001 -15 91.1194 -15 92.5001Z" fill="#00AF66" fill-opacity="0.7"/>
<path d="M0 92.5001C0 93.8808 -1.11929 95.0001 -2.5 95.0001C-3.88071 95.0001 -5 93.8808 -5 92.5001C-5 91.1194 -3.88071 90.0001 -2.5 90.0001C-1.11929 90.0001 0 91.1194 0 92.5001Z" fill="#00AF66" fill-opacity="0.7"/>
<path d="M15 92.5001C15 93.8808 13.8807 95.0001 12.5 95.0001C11.1193 95.0001 10 93.8808 10 92.5001C10 91.1194 11.1193 90.0001 12.5 90.0001C13.8807 90.0001 15 91.1194 15 92.5001Z" fill="#00AF66" fill-opacity="0.7"/>
<path d="M30 92.5001C30 93.8808 28.8807 95.0001 27.5 95.0001C26.1193 95.0001 25 93.8808 25 92.5001C25 91.1194 26.1193 90.0001 27.5 90.0001C28.8807 90.0001 30 91.1194 30 92.5001Z" fill="#00AF66" fill-opacity="0.7"/>
<path d="M45 92.5001C45 93.8808 43.8807 95.0001 42.5 95.0001C41.1193 95.0001 40 93.8808 40 92.5001C40 91.1194 41.1193 90.0001 42.5 90.0001C43.8807 90.0001 45 91.1194 45 92.5001Z" fill="#00AF66" fill-opacity="0.7"/>
<path d="M60 92.5001C60 93.8808 58.8807 95.0001 57.5 95.0001C56.1193 95.0001 55 93.8808 55 92.5001C55 91.1194 56.1193 90.0001 57.5 90.0001C58.8807 90.0001 60 91.1194 60 92.5001Z" fill="#00AF66" fill-opacity="0.7"/>
<path d="M-90 107.5C-90 108.881 -91.1193 110 -92.5 110C-93.8807 110 -95 108.881 -95 107.5C-95 106.119 -93.8807 105 -92.5 105C-91.1193 105 -90 106.119 -90 107.5Z" fill="#00AF66" fill-opacity="0.7"/>
<path d="M-75 107.5C-75 108.881 -76.1193 110 -77.5 110C-78.8807 110 -80 108.881 -80 107.5C-80 106.119 -78.8807 105 -77.5 105C-76.1193 105 -75 106.119 -75 107.5Z" fill="#00AF66" fill-opacity="0.7"/>
<path d="M-60 107.5C-60 108.881 -61.1193 110 -62.5 110C-63.8807 110 -65 108.881 -65 107.5C-65 106.119 -63.8807 105 -62.5 105C-61.1193 105 -60 106.119 -60 107.5Z" fill="#00AF66" fill-opacity="0.7"/>
<path d="M-45 107.5C-45 108.881 -46.1193 110 -47.5 110C-48.8807 110 -50 108.881 -50 107.5C-50 106.119 -48.8807 105 -47.5 105C-46.1193 105 -45 106.119 -45 107.5Z" fill="#00AF66" fill-opacity="0.7"/>
<path d="M-30 107.5C-30 108.881 -31.1193 110 -32.5 110C-33.8807 110 -35 108.881 -35 107.5C-35 106.119 -33.8807 105 -32.5 105C-31.1193 105 -30 106.119 -30 107.5Z" fill="#00AF66" fill-opacity="0.7"/>
<path d="M-15 107.5C-15 108.881 -16.1193 110 -17.5 110C-18.8807 110 -20 108.881 -20 107.5C-20 106.119 -18.8807 105 -17.5 105C-16.1193 105 -15 106.119 -15 107.5Z" fill="#00AF66" fill-opacity="0.7"/>
<path d="M0 107.5C0 108.881 -1.11929 110 -2.5 110C-3.88071 110 -5 108.881 -5 107.5C-5 106.119 -3.88071 105 -2.5 105C-1.11929 105 0 106.119 0 107.5Z" fill="#00AF66" fill-opacity="0.7"/>
<path d="M15 107.5C15 108.881 13.8807 110 12.5 110C11.1193 110 10 108.881 10 107.5C10 106.119 11.1193 105 12.5 105C13.8807 105 15 106.119 15 107.5Z" fill="#00AF66" fill-opacity="0.7"/>
<path d="M30 107.5C30 108.881 28.8807 110 27.5 110C26.1193 110 25 108.881 25 107.5C25 106.119 26.1193 105 27.5 105C28.8807 105 30 106.119 30 107.5Z" fill="#00AF66" fill-opacity="0.7"/>
<path d="M45 107.5C45 108.881 43.8807 110 42.5 110C41.1193 110 40 108.881 40 107.5C40 106.119 41.1193 105 42.5 105C43.8807 105 45 106.119 45 107.5Z" fill="#00AF66" fill-opacity="0.7"/>
<path d="M60 107.5C60 108.881 58.8807 110 57.5 110C56.1193 110 55 108.881 55 107.5C55 106.119 56.1193 105 57.5 105C58.8807 105 60 106.119 60 107.5Z" fill="#00AF66" fill-opacity="0.7"/>
<path d="M-90 122.5C-90 123.881 -91.1193 125 -92.5 125C-93.8807 125 -95 123.881 -95 122.5C-95 121.119 -93.8807 120 -92.5 120C-91.1193 120 -90 121.119 -90 122.5Z" fill="#00AF66" fill-opacity="0.7"/>
<path d="M-75 122.5C-75 123.881 -76.1193 125 -77.5 125C-78.8807 125 -80 123.881 -80 122.5C-80 121.119 -78.8807 120 -77.5 120C-76.1193 120 -75 121.119 -75 122.5Z" fill="#00AF66" fill-opacity="0.7"/>
<path d="M-60 122.5C-60 123.881 -61.1193 125 -62.5 125C-63.8807 125 -65 123.881 -65 122.5C-65 121.119 -63.8807 120 -62.5 120C-61.1193 120 -60 121.119 -60 122.5Z" fill="#00AF66" fill-opacity="0.7"/>
<path d="M-45 122.5C-45 123.881 -46.1193 125 -47.5 125C-48.8807 125 -50 123.881 -50 122.5C-50 121.119 -48.8807 120 -47.5 120C-46.1193 120 -45 121.119 -45 122.5Z" fill="#00AF66" fill-opacity="0.7"/>
<path d="M-30 122.5C-30 123.881 -31.1193 125 -32.5 125C-33.8807 125 -35 123.881 -35 122.5C-35 121.119 -33.8807 120 -32.5 120C-31.1193 120 -30 121.119 -30 122.5Z" fill="#00AF66" fill-opacity="0.7"/>
<path d="M-15 122.5C-15 123.881 -16.1193 125 -17.5 125C-18.8807 125 -20 123.881 -20 122.5C-20 121.119 -18.8807 120 -17.5 120C-16.1193 120 -15 121.119 -15 122.5Z" fill="#00AF66" fill-opacity="0.7"/>
<path d="M0 122.5C0 123.881 -1.11929 125 -2.5 125C-3.88071 125 -5 123.881 -5 122.5C-5 121.119 -3.88071 120 -2.5 120C-1.11929 120 0 121.119 0 122.5Z" fill="#00AF66" fill-opacity="0.7"/>
<path d="M15 122.5C15 123.881 13.8807 125 12.5 125C11.1193 125 10 123.881 10 122.5C10 121.119 11.1193 120 12.5 120C13.8807 120 15 121.119 15 122.5Z" fill="#00AF66" fill-opacity="0.7"/>
<path d="M30 122.5C30 123.881 28.8807 125 27.5 125C26.1193 125 25 123.881 25 122.5C25 121.119 26.1193 120 27.5 120C28.8807 120 30 121.119 30 122.5Z" fill="#00AF66" fill-opacity="0.7"/>
<path d="M45 122.5C45 123.881 43.8807 125 42.5 125C41.1193 125 40 123.881 40 122.5C40 121.119 41.1193 120 42.5 120C43.8807 120 45 121.119 45 122.5Z" fill="#00AF66" fill-opacity="0.7"/>
<path d="M60 122.5C60 123.881 58.8807 125 57.5 125C56.1193 125 55 123.881 55 122.5C55 121.119 56.1193 120 57.5 120C58.8807 120 60 121.119 60 122.5Z" fill="#00AF66" fill-opacity="0.7"/>
<path d="M-90 137.5C-90 138.881 -91.1193 140 -92.5 140C-93.8807 140 -95 138.881 -95 137.5C-95 136.119 -93.8807 135 -92.5 135C-91.1193 135 -90 136.119 -90 137.5Z" fill="#00AF66" fill-opacity="0.7"/>
<path d="M-75 137.5C-75 138.881 -76.1193 140 -77.5 140C-78.8807 140 -80 138.881 -80 137.5C-80 136.119 -78.8807 135 -77.5 135C-76.1193 135 -75 136.119 -75 137.5Z" fill="#00AF66" fill-opacity="0.7"/>
<path d="M-60 137.5C-60 138.881 -61.1193 140 -62.5 140C-63.8807 140 -65 138.881 -65 137.5C-65 136.119 -63.8807 135 -62.5 135C-61.1193 135 -60 136.119 -60 137.5Z" fill="#00AF66" fill-opacity="0.7"/>
<path d="M-45 137.5C-45 138.881 -46.1193 140 -47.5 140C-48.8807 140 -50 138.881 -50 137.5C-50 136.119 -48.8807 135 -47.5 135C-46.1193 135 -45 136.119 -45 137.5Z" fill="#00AF66" fill-opacity="0.7"/>
<path d="M-30 137.5C-30 138.881 -31.1193 140 -32.5 140C-33.8807 140 -35 138.881 -35 137.5C-35 136.119 -33.8807 135 -32.5 135C-31.1193 135 -30 136.119 -30 137.5Z" fill="#00AF66" fill-opacity="0.7"/>
<path d="M-15 137.5C-15 138.881 -16.1193 140 -17.5 140C-18.8807 140 -20 138.881 -20 137.5C-20 136.119 -18.8807 135 -17.5 135C-16.1193 135 -15 136.119 -15 137.5Z" fill="#00AF66" fill-opacity="0.7"/>
<path d="M0 137.5C0 138.881 -1.11929 140 -2.5 140C-3.88071 140 -5 138.881 -5 137.5C-5 136.119 -3.88071 135 -2.5 135C-1.11929 135 0 136.119 0 137.5Z" fill="#00AF66" fill-opacity="0.7"/>
<path d="M15 137.5C15 138.881 13.8807 140 12.5 140C11.1193 140 10 138.881 10 137.5C10 136.119 11.1193 135 12.5 135C13.8807 135 15 136.119 15 137.5Z" fill="#00AF66" fill-opacity="0.7"/>
<path d="M30 137.5C30 138.881 28.8807 140 27.5 140C26.1193 140 25 138.881 25 137.5C25 136.119 26.1193 135 27.5 135C28.8807 135 30 136.119 30 137.5Z" fill="#00AF66" fill-opacity="0.7"/>
<path d="M45 137.5C45 138.881 43.8807 140 42.5 140C41.1193 140 40 138.881 40 137.5C40 136.119 41.1193 135 42.5 135C43.8807 135 45 136.119 45 137.5Z" fill="#00AF66" fill-opacity="0.7"/>
<path d="M60 137.5C60 138.881 58.8807 140 57.5 140C56.1193 140 55 138.881 55 137.5C55 136.119 56.1193 135 57.5 135C58.8807 135 60 136.119 60 137.5Z" fill="#00AF66" fill-opacity="0.7"/>
<path d="M-90 152.5C-90 153.881 -91.1193 155 -92.5 155C-93.8807 155 -95 153.881 -95 152.5C-95 151.119 -93.8807 150 -92.5 150C-91.1193 150 -90 151.119 -90 152.5Z" fill="#00AF66" fill-opacity="0.7"/>
<path d="M-75 152.5C-75 153.881 -76.1193 155 -77.5 155C-78.8807 155 -80 153.881 -80 152.5C-80 151.119 -78.8807 150 -77.5 150C-76.1193 150 -75 151.119 -75 152.5Z" fill="#00AF66" fill-opacity="0.7"/>
<path d="M-60 152.5C-60 153.881 -61.1193 155 -62.5 155C-63.8807 155 -65 153.881 -65 152.5C-65 151.119 -63.8807 150 -62.5 150C-61.1193 150 -60 151.119 -60 152.5Z" fill="#00AF66" fill-opacity="0.7"/>
<path d="M-45 152.5C-45 153.881 -46.1193 155 -47.5 155C-48.8807 155 -50 153.881 -50 152.5C-50 151.119 -48.8807 150 -47.5 150C-46.1193 150 -45 151.119 -45 152.5Z" fill="#00AF66" fill-opacity="0.7"/>
<path d="M-30 152.5C-30 153.881 -31.1193 155 -32.5 155C-33.8807 155 -35 153.881 -35 152.5C-35 151.119 -33.8807 150 -32.5 150C-31.1193 150 -30 151.119 -30 152.5Z" fill="#00AF66" fill-opacity="0.7"/>
<path d="M-15 152.5C-15 153.881 -16.1193 155 -17.5 155C-18.8807 155 -20 153.881 -20 152.5C-20 151.119 -18.8807 150 -17.5 150C-16.1193 150 -15 151.119 -15 152.5Z" fill="#00AF66" fill-opacity="0.7"/>
<path d="M0 152.5C0 153.881 -1.11929 155 -2.5 155C-3.88071 155 -5 153.881 -5 152.5C-5 151.119 -3.88071 150 -2.5 150C-1.11929 150 0 151.119 0 152.5Z" fill="#00AF66" fill-opacity="0.7"/>
<path d="M15 152.5C15 153.881 13.8807 155 12.5 155C11.1193 155 10 153.881 10 152.5C10 151.119 11.1193 150 12.5 150C13.8807 150 15 151.119 15 152.5Z" fill="#00AF66" fill-opacity="0.7"/>
<path d="M30 152.5C30 153.881 28.8807 155 27.5 155C26.1193 155 25 153.881 25 152.5C25 151.119 26.1193 150 27.5 150C28.8807 150 30 151.119 30 152.5Z" fill="#00AF66" fill-opacity="0.7"/>
<path d="M45 152.5C45 153.881 43.8807 155 42.5 155C41.1193 155 40 153.881 40 152.5C40 151.119 41.1193 150 42.5 150C43.8807 150 45 151.119 45 152.5Z" fill="#00AF66" fill-opacity="0.7"/>
<path d="M60 152.5C60 153.881 58.8807 155 57.5 155C56.1193 155 55 153.881 55 152.5C55 151.119 56.1193 150 57.5 150C58.8807 150 60 151.119 60 152.5Z" fill="#00AF66" fill-opacity="0.7"/>
<path d="M-90 167.5C-90 168.881 -91.1193 170 -92.5 170C-93.8807 170 -95 168.881 -95 167.5C-95 166.119 -93.8807 165 -92.5 165C-91.1193 165 -90 166.119 -90 167.5Z" fill="#00AF66" fill-opacity="0.7"/>
<path d="M-75 167.5C-75 168.881 -76.1193 170 -77.5 170C-78.8807 170 -80 168.881 -80 167.5C-80 166.119 -78.8807 165 -77.5 165C-76.1193 165 -75 166.119 -75 167.5Z" fill="#00AF66" fill-opacity="0.7"/>
<path d="M-60 167.5C-60 168.881 -61.1193 170 -62.5 170C-63.8807 170 -65 168.881 -65 167.5C-65 166.119 -63.8807 165 -62.5 165C-61.1193 165 -60 166.119 -60 167.5Z" fill="#00AF66" fill-opacity="0.7"/>
<path d="M-45 167.5C-45 168.881 -46.1193 170 -47.5 170C-48.8807 170 -50 168.881 -50 167.5C-50 166.119 -48.8807 165 -47.5 165C-46.1193 165 -45 166.119 -45 167.5Z" fill="#00AF66" fill-opacity="0.7"/>
<path d="M-30 167.5C-30 168.881 -31.1193 170 -32.5 170C-33.8807 170 -35 168.881 -35 167.5C-35 166.119 -33.8807 165 -32.5 165C-31.1193 165 -30 166.119 -30 167.5Z" fill="#00AF66" fill-opacity="0.7"/>
<path d="M-15 167.5C-15 168.881 -16.1193 170 -17.5 170C-18.8807 170 -20 168.881 -20 167.5C-20 166.119 -18.8807 165 -17.5 165C-16.1193 165 -15 166.119 -15 167.5Z" fill="#00AF66" fill-opacity="0.7"/>
<path d="M0 167.5C0 168.881 -1.11929 170 -2.5 170C-3.88071 170 -5 168.881 -5 167.5C-5 166.119 -3.88071 165 -2.5 165C-1.11929 165 0 166.119 0 167.5Z" fill="#00AF66" fill-opacity="0.7"/>
<path d="M15 167.5C15 168.881 13.8807 170 12.5 170C11.1193 170 10 168.881 10 167.5C10 166.119 11.1193 165 12.5 165C13.8807 165 15 166.119 15 167.5Z" fill="#00AF66" fill-opacity="0.7"/>
<path d="M30 167.5C30 168.881 28.8807 170 27.5 170C26.1193 170 25 168.881 25 167.5C25 166.119 26.1193 165 27.5 165C28.8807 165 30 166.119 30 167.5Z" fill="#00AF66" fill-opacity="0.7"/>
<path d="M45 167.5C45 168.881 43.8807 170 42.5 170C41.1193 170 40 168.881 40 167.5C40 166.119 41.1193 165 42.5 165C43.8807 165 45 166.119 45 167.5Z" fill="#00AF66" fill-opacity="0.7"/>
<path d="M60 167.5C60 168.881 58.8807 170 57.5 170C56.1193 170 55 168.881 55 167.5C55 166.119 56.1193 165 57.5 165C58.8807 165 60 166.119 60 167.5Z" fill="#00AF66" fill-opacity="0.7"/>
</svg>
