<svg width="16" height="16" viewBox="0 0 16 16" fill="none" xmlns="http://www.w3.org/2000/svg">
<path d="M11.6333 15.1666C10.88 15.1666 10.0867 14.9866 9.26667 14.6399C8.46667 14.2999 7.66 13.8333 6.87333 13.2666C6.09333 12.6933 5.34 12.0533 4.62667 11.3533C3.92 10.6399 3.28 9.88659 2.71333 9.11325C2.14 8.31325 1.68 7.51325 1.35333 6.73992C1.00667 5.91325 0.833334 5.11325 0.833334 4.35992C0.833334 3.83992 0.926667 3.34659 1.10667 2.88658C1.29333 2.41325 1.59333 1.97325 2 1.59325C2.51333 1.08659 3.1 0.833252 3.72667 0.833252C3.98667 0.833252 4.25333 0.893252 4.48 0.999919C4.74 1.11992 4.96 1.29992 5.12 1.53992L6.66667 3.71992C6.80667 3.91325 6.91333 4.09992 6.98667 4.28658C7.07333 4.48658 7.12 4.68659 7.12 4.87992C7.12 5.13325 7.04667 5.37992 6.90667 5.61325C6.80667 5.79325 6.65333 5.98659 6.46 6.17992L6.00667 6.65325C6.01333 6.67325 6.02 6.68658 6.02667 6.69992C6.10667 6.83992 6.26667 7.07992 6.57333 7.43992C6.9 7.81325 7.20667 8.15325 7.51333 8.46658C7.90667 8.85325 8.23333 9.15992 8.54 9.41325C8.92 9.73325 9.16667 9.89325 9.31333 9.96658L9.3 9.99992L9.78667 9.51992C9.99333 9.31325 10.1933 9.15992 10.3867 9.05992C10.7533 8.83325 11.22 8.79325 11.6867 8.98658C11.86 9.05992 12.0467 9.15992 12.2467 9.29992L14.46 10.8733C14.7067 11.0399 14.8867 11.2533 14.9933 11.5066C15.0933 11.7599 15.14 11.9933 15.14 12.2266C15.14 12.5466 15.0667 12.8666 14.9267 13.1666C14.7867 13.4666 14.6133 13.7266 14.3933 13.9666C14.0133 14.3866 13.6 14.6866 13.12 14.8799C12.66 15.0666 12.16 15.1666 11.6333 15.1666ZM3.72667 1.83325C3.36 1.83325 3.02 1.99325 2.69333 2.31325C2.38667 2.59992 2.17333 2.91325 2.04 3.25325C1.9 3.59992 1.83333 3.96659 1.83333 4.35992C1.83333 4.97992 1.98 5.65325 2.27333 6.34659C2.57333 7.05325 2.99333 7.78658 3.52667 8.51992C4.06 9.25325 4.66667 9.96659 5.33333 10.6399C6 11.2999 6.72 11.9133 7.46 12.4533C8.18 12.9799 8.92 13.4066 9.65333 13.7133C10.7933 14.1999 11.86 14.3133 12.74 13.9466C13.08 13.8066 13.38 13.5933 13.6533 13.2866C13.8067 13.1199 13.9267 12.9399 14.0267 12.7266C14.1067 12.5599 14.1467 12.3866 14.1467 12.2133C14.1467 12.1066 14.1267 11.9999 14.0733 11.8799C14.0533 11.8399 14.0133 11.7666 13.8867 11.6799L11.6733 10.1066C11.54 10.0133 11.42 9.94658 11.3067 9.89992C11.16 9.83992 11.1 9.77992 10.8733 9.91992C10.74 9.98658 10.62 10.0866 10.4867 10.2199L9.98 10.7199C9.72 10.9733 9.32 11.0333 9.01333 10.9199L8.83333 10.8399C8.56 10.6933 8.24 10.4666 7.88667 10.1666C7.56667 9.89325 7.22 9.57325 6.8 9.15992C6.47333 8.82658 6.14667 8.47325 5.80667 8.07992C5.49333 7.71325 5.26667 7.39992 5.12667 7.13992L5.04667 6.93992C5.00667 6.78658 4.99333 6.69992 4.99333 6.60659C4.99333 6.36658 5.08 6.15325 5.24667 5.98658L5.74667 5.46658C5.88 5.33325 5.98 5.20658 6.04667 5.09325C6.1 5.00659 6.12 4.93325 6.12 4.86659C6.12 4.81325 6.1 4.73325 6.06667 4.65325C6.02 4.54659 5.94667 4.42658 5.85333 4.29992L4.30667 2.11325C4.24 2.01992 4.16 1.95325 4.06 1.90659C3.95333 1.85992 3.84 1.83325 3.72667 1.83325ZM9.3 10.0066L9.19333 10.4599L9.37333 9.99325C9.34 9.98658 9.31333 9.99325 9.3 10.0066Z" fill="#5E6665"/>
</svg>
